<?xml version="1.0" standalone="no"?>
<!DOCTYPE svg PUBLIC "-//W3C//DTD SVG 20010904//EN"
 "http://www.w3.org/TR/2001/REC-SVG-20010904/DTD/svg10.dtd">
<svg version="1.0" xmlns="http://www.w3.org/2000/svg"
 width="410.000000pt" height="433.000000pt" viewBox="0 0 410.000000 433.000000"
 preserveAspectRatio="xMidYMid meet">

<g transform="translate(0.000000,433.000000) scale(0.100000,-0.100000)"
fill="#000000" stroke="none">
<path d="M2667 3863 c-3 -4 -8 -24 -12 -43 -23 -114 -137 -240 -278 -308 -45
-22 -183 -75 -307 -117 -124 -43 -254 -92 -290 -110 -144 -73 -241 -167 -295
-288 -14 -32 -31 -57 -40 -57 -23 0 -47 58 -54 131 l-6 68 -60 -30 c-298 -153
-513 -474 -541 -808 -4 -46 -2 -106 6 -150 7 -40 9 -75 6 -78 -12 -12 -68 21
-101 59 l-33 40 -26 -39 c-14 -21 -37 -68 -51 -106 -139 -370 0 -899 312
-1187 88 -81 175 -133 278 -166 118 -37 189 -41 320 -14 159 32 202 26 345
-48 147 -76 231 -96 395 -95 297 2 563 121 800 358 203 202 338 460 395 752
25 130 38 347 22 357 -21 13 -176 19 -214 8 -21 -6 -38 -9 -38 -7 0 1 18 22
40 46 117 127 160 360 101 549 -31 97 -29 95 -118 94 -58 0 -91 -6 -127 -22
-27 -12 -50 -22 -52 -22 -1 0 6 25 16 56 61 176 44 438 -46 695 -75 216 -174
366 -306 463 -20 15 -38 23 -41 19z m-217 -891 c0 -4 -32 -34 -70 -67 -88 -75
-141 -139 -171 -209 -21 -50 -27 -56 -54 -56 -16 0 -37 5 -45 10 -25 15 24 93
115 185 91 91 225 173 225 137z m-290 -356 c249 -38 447 -141 556 -289 l46
-61 -70 -18 c-74 -18 -131 -48 -171 -92 -31 -33 -21 -33 28 -1 91 61 212 85
316 63 l60 -13 14 -59 c12 -49 12 -71 2 -118 l-12 -59 51 -67 c98 -131 183
-325 214 -491 16 -86 32 -249 23 -241 -3 3 -13 41 -22 85 -24 116 -80 278
-128 368 -43 80 -115 170 -168 208 l-31 22 -81 -81 c-106 -104 -184 -159 -310
-221 -88 -43 -267 -105 -361 -126 -29 -6 -29 -6 20 -29 98 -47 184 -164 184
-251 0 -56 -29 -113 -82 -162 -37 -33 -115 -83 -131 -83 -1 0 22 26 53 58 98
101 121 184 76 277 -38 78 -123 143 -231 179 -15 6 6 19 91 61 196 95 339 222
384 343 13 35 20 77 20 126 0 269 -206 451 -535 472 -164 11 -326 -36 -398
-115 -19 -21 -36 -44 -39 -51 -3 -9 -15 -6 -46 10 -83 44 -194 23 -228 -42
-29 -57 -2 -158 44 -158 8 0 27 -11 44 -25 16 -14 35 -25 41 -25 45 1 51 75 8
97 l-25 12 27 6 c66 17 136 -25 176 -107 37 -73 38 -84 10 -99 -30 -16 -88 -6
-182 31 -43 16 -83 30 -88 30 -5 0 -14 -12 -19 -26 -18 -46 -60 -91 -143 -155
-105 -79 -155 -127 -174 -163 -15 -29 -21 -121 -9 -134 4 -3 25 13 48 36 22
23 47 42 54 42 19 0 18 -2 -17 -46 -76 -94 -100 -199 -56 -249 44 -50 197 -54
382 -11 33 8 61 13 63 11 2 -1 -21 -14 -50 -28 -63 -30 -148 -47 -234 -47 -86
0 -124 -9 -124 -29 0 -31 106 -147 177 -194 86 -57 186 -92 349 -123 l129 -24
-120 5 c-164 6 -296 30 -373 66 -68 33 -121 89 -201 212 -24 37 -47 67 -52 67
-5 0 -18 9 -29 20 -18 18 -20 33 -20 168 0 136 -2 150 -20 167 -55 50 -12 107
225 297 66 52 128 105 138 116 23 25 16 53 -29 123 -47 73 -45 110 5 180 82
114 280 238 491 309 170 58 298 70 460 46z"/>
<path d="M2685 2133 l-50 -17 55 -6 c30 -3 65 -11 77 -18 50 -28 37 -105 -28
-171 -53 -56 -23 -52 39 4 74 67 112 159 83 204 -14 22 -116 24 -176 4z"/>
</g>
</svg>
